<svg xmlns="http://www.w3.org/2000/svg" viewBox="0 0 1024 1024" id="icon-health-full-jockey">
<path d="M671.968533 778.6368v106.591467H565.333333v106.7712H458.666667v-106.582934H352.029867v-106.7792l-0.059734 0.0592c30.236267-0.0112 60.4752-0.017067 90.712534-0.034666 5.318933-0.0032 10.636267-0.051733 15.955733-0.077867 1.061867 0.027733 2.124267 0.077867 3.188267 0.077867 30.8624 0.005333 61.7248 0.008 92.5888 0 3.6336-0.001067 7.2688-0.0544 10.901866-0.082134 1.151467 0.029333 2.3024 0.0816 3.455467 0.082134 34.414933 0.0112 68.832 0.015467 103.247467 0.021333l-0.051734-0.0464z" fill="#0B0B0B"></path><path d="M32 245.333867c35.561067 0.005867 71.122667 0.0112 106.683733 0.0176l-0.0384-0.038934c0.006933 69.945067 0.013867 139.892267 0.024 209.837334 0 1.154133 0.0416 2.3088 0.064 3.462933-0.0224 0.619733-0.063467 1.24-0.063466 1.860267 0 34.949333 0.004267 69.8992 0.007466 104.848533l-0.0224 0.0224c-35.551467-0.002667-71.102933-0.006933-106.654933-0.010667V245.333867zM885.322133 245.346133l106.677867-0.011733v320c-35.551467 0.003733-71.102933 0.008-106.655467 0.0112l-0.022933-0.0224c0.004267-23.5056 0.014933-47.0112 0.008-70.5168-0.0048-12.0624-0.0448-24.124267-0.0688-36.188267 0.024-1.154133 0.069333-2.308267 0.069333-3.461866 0.008533-69.945067 0.012267-139.8912 0.0176-209.8368l-0.0256 0.026666zM245.351467 138.6832c-0.006933-35.561067-0.012267-71.1216-0.018134-106.682667h213.333334l0.039466 106.672c-7.193067-0.002133-14.3872-0.004267-21.5792-0.005333-63.938667-0.008533-127.877867-0.013867-191.814933-0.021333l0.039467 0.037333zM778.666667 32.000533l-0.012267 106.677867 0.028267-0.0272c-32.550933 0.0048-65.101867 0.007467-97.653867 0.018133-3.0128 0.001067-6.027733 0.054933-9.041067 0.083734-0.7072-0.0304-1.4144-0.083733-2.122133-0.083734-34.857067-0.002667-69.714667-0.000533-104.571733 0.0016 0.013333-35.557333 0.0288-71.114667 0.041066-106.672 71.109333 0.0016 142.2208 0.0016 213.331734 0.0016z" fill="#0B0B0B"></path><path d="M245.322133 672.011733h-106.666666v-106.666666l0.0224-0.0224c26.733333 0.003733 53.4672 0.0016 80.200533 0.0144 8.791467 0.004267 17.582933 0.048 26.374933 0.0736 0.027733 1.153067 0.077867 2.306667 0.077867 3.459733 0.008 34.371733 0.010667 68.744533 0.013333 103.118933l-0.0224 0.0224zM352.029867 778.638933H245.322133v-106.6272l0.023467-0.0224 106.5712 0.030934c0.026133 0.264 0.0768 0.528533 0.0768 0.792533-0.006933 35.295467-0.014933 70.589867-0.023467 105.885333l0.059734-0.0592zM885.344533 565.345067v106.666666h-106.666666l-0.022934-0.0224c0.006933-35.549333 0.0112-71.100267 0.017067-106.649066l-0.000533 0.000533c35.549867-0.006933 71.100267-0.011733 106.650133-0.018133l0.022933 0.0224z" fill="#0B0B0B"></path><path d="M778.677867 672.011733v106.6256h-106.709334l0.049067 0.047467c-0.005867-35.027733-0.011733-70.054933-0.0128-105.081067 0-0.5296 0.062933-1.0592 0.098133-1.5888l106.5536-0.024 0.021334 0.0208z" fill="#0B0B0B"></path><path d="M351.968533 778.698667c0.009067-35.295467 0.017067-70.589867 0.023467-105.885334 0-0.264-0.050667-0.528533-0.0768-0.792533 0.028267-1.061333 0.079467-2.1248 0.079467-3.1888 0.004267-32.032533 0.0016-64.063467 0.007466-96.095467 0.000533-2.482133 0.055467-4.9664 0.0848-7.449066 35.530133 0.0112 71.061333 0.020267 106.591467 0.032 0.0112 35.538667 0.019733 71.077867 0.0304 106.615466-0.0144 1.243733-0.0416 2.487467-0.042133 3.7312-0.011733 34.3056-0.021867 68.611733-0.032 102.918934-5.318933 0.027733-10.636267 0.076267-15.956267 0.077866-30.234667 0.018133-60.472 0.024-90.709867 0.035734z" fill="#C0C0C0"></path><path d="M458.6368 778.584533c0.010133-34.3056 0.0192-68.611733 0.031467-102.918933 0.000533-1.2432 0.0272-2.486933 0.042133-3.730667l106.574933 0.010134 0.030934 106.634666c-3.6336 0.029867-7.2688 0.0816-10.9024 0.082667-30.8624 0.008-61.7248 0.0048-92.5888 0-1.062933 0-2.1248-0.050667-3.188267-0.077867z" fill="#8E8E8E"></path><path d="M565.316267 778.580267l-0.030934-106.6352-0.014933 0.026133 106.6128 0.005333 0.218133 0.037334c-0.0336 0.5296-0.098133 1.0592-0.098133 1.5888 0.001067 35.027733 0.008533 70.054933 0.0128 105.081066-34.415467-0.005867-68.832533-0.0112-103.247467-0.021333-1.149867-0.000533-2.3008-0.0528-3.452266-0.082133z" fill="#797979"></path><path d="M138.683733 245.351467V138.6832h106.6672l-0.038933-0.037333-0.008533 106.658133c-35.553067 0.003733-71.1056 0.005867-106.658134 0.008533l0.0384 0.038934zM778.6544 138.679467h106.667733v106.666666l0.0272-0.0272h-106.666666v-106.666666l-0.028267 0.0272z" fill="#0B0B0B"></path><path d="M138.645333 245.312533c35.553067-0.002667 71.1056-0.0048 106.658134-0.008533l0.0464 0.045867c-0.006933 1.331733-0.016533 2.663467-0.016534 3.994666-0.003733 69.783467-0.0064 139.566933-0.009066 209.349334-5.773867-0.010667-11.5472-0.023467-17.322134-0.0272-29.7568-0.019733-59.5136-0.036267-89.2704-0.055467-0.0224-1.154133-0.064-2.3088-0.064-3.462933-0.008533-69.943467-0.014933-139.8896-0.0224-209.835734z" fill="#EE7E4A"></path><path d="M138.733333 458.613867c29.7568 0.0176 59.5136 0.034133 89.2704 0.055466 5.773867 0.003733 11.5472 0.016533 17.322134 0.0272 0.002667 34.362667 0.0048 68.723733 0.0112 103.088 0 1.152533 0.058133 2.303467 0.089066 3.456l-0.173333 0.170134c-8.7904-0.0256-17.582933-0.069333-26.374933-0.0736-26.733333-0.0128-53.4672-0.0112-80.200534-0.0144-0.0032-34.949333-0.007467-69.900267-0.007466-104.848534 0-0.619733 0.041067-1.24 0.063466-1.860266z" fill="#7F3919"></path><path d="M778.681067 138.6528v106.666667h106.666666c-0.005333 69.9456-0.010667 139.891733-0.0176 209.837333 0 1.154133-0.045333 2.3072-0.069333 3.461333H778.672v106.722134l0.000533-0.000534-106.6-0.050666c-0.024533-5.327467-0.066133-10.655467-0.0704-15.982934-0.026133-30.192533-0.042667-60.388267-0.0624-90.581866 0.019733-0.6208 0.056533-1.242133 0.056534-1.862934 0-70.500267-0.002667-141.000533-0.005334-211.501333l-0.0064-106.6064c3.013867-0.0304 6.0288-0.082667 9.0416-0.083733 32.553067-0.010133 65.104-0.0128 97.654934-0.017067z" fill="#D9662C"></path><path d="M778.673067 565.341333V458.6192h106.5888c0.024 12.0624 0.064 24.124267 0.0688 36.188267 0.008533 23.505067-0.003733 47.0112-0.008 70.5168-35.549867 0.003733-71.099733 0.010667-106.6496 0.017066z" fill="#7F3919"></path><path d="M245.304 245.305067l0.008533-106.658134c63.938133 0.007467 127.877333 0.0128 191.814934 0.021334 7.193067 0.001067 14.386133 0.0032 21.5792 0.005333l-0.044267-0.049067c0.001067 16.9408-0.0048 33.880533 0.0064 50.822934 0.012267 18.625067 0.040533 37.250667 0.061333 55.875733-3.635733 0.003733-7.271467 0.0112-10.9072 0.0112-31.922667 0.0128-63.845867 0.027733-95.768533 0.041067-35.566933-0.009067-71.136-0.015467-106.7024-0.024534l-0.048-0.045866zM671.9872 138.754667l0.0064 106.6064-106.720533-0.040534c0.019733-1.062933 0.0576-2.1264 0.0576-3.1888 0.0048-34.501867 0.005867-69.005867 0.007466-103.506666l-0.045866 0.049066c34.857067-0.002133 69.714667-0.004267 104.571733-0.0016 0.707733-0.0016 1.414933 0.0528 2.1232 0.082134z" fill="#EE7E4A"></path><path d="M565.338133 138.623467c-0.0016 34.5008-0.002667 69.0048-0.007466 103.506666 0 1.0624-0.037867 2.125867-0.0576 3.1888l0.048-0.030933H458.679467l0.051733 0.032533c-0.021333-18.625067-0.049067-37.250667-0.061333-55.875733-0.0112-16.9424-0.005333-33.882133-0.0064-50.822933 35.557333 0.0016 71.115733 0.0016 106.674666 0.0016z" fill="#0B0B0B"></path><path d="M352.0896 565.286933c-0.029867 2.482667-0.085333 4.966933-0.085867 7.449067-0.005867 32.032-0.0032 64.063467-0.007466 96.095467 0 1.062933-0.051733 2.1264-0.079467 3.1888l-106.5712-0.030934c-0.0048-34.3728-0.007467-68.7456-0.0144-103.118933 0-1.153067-0.050133-2.306667-0.077867-3.459733l0.173334-0.1696c0.5312 0.032 1.0624 0.088533 1.5936 0.088533 35.002133-0.002133 70.004267-0.009067 105.006933-0.013867l0.0624-0.0288zM672.0736 565.290133c35.533333 0.015467 71.066667 0.0336 106.6 0.050667l-0.017067 106.649067-106.554133 0.024-0.2176-0.0368c0.036267-0.350933 0.106133-0.703467 0.1056-1.056-0.007467-35.016533-0.020267-70.0336-0.033067-105.0512 0.038933-0.194133 0.0768-0.3872 0.116267-0.579734z" fill="#7F3919"></path><path d="M458.681067 565.318933c-35.5312-0.0112-71.0624-0.0208-106.592534-0.032l-0.0624 0.027734c-0.009067-11.635733-0.029333-23.273067-0.023466-34.907734 0.0112-23.8928 0.036267-47.7872 0.055466-71.6784 4.615467-0.020267 9.2336-0.058667 13.8496-0.056533 30.899733 0.012267 61.799467 0.034667 92.6992 0.055467 0.013867 35.542933 0.029333 71.0832 0.042667 106.625066l0.031467-0.0336z" fill="#0B0B0B"></path><path d="M565.285333 671.945067l-106.574933-0.010134-0.029333-106.616-0.032534 0.032 106.699734-0.0016-0.032-0.0304c0.0064 16.086933 0.0208 32.173867 0.0128 48.261334-0.0112 19.4624-0.038933 38.925867-0.060267 58.389333l0.016533-0.024533z" fill="#0B0B0B"></path><path d="M565.2704 671.970667c0.021333-19.463467 0.050667-38.926933 0.060267-58.389334 0.008-16.087467-0.008-32.1744-0.0128-48.261333 32.386667 0.005333 64.770667-0.0048 97.1568 0.0384 3.161067 0.004267 6.322133 0.3328 9.482666 0.510933 0.012267 35.016 0.0256 70.0336 0.0336 105.0512 0 0.352533-0.069867 0.705067-0.106133 1.056-35.5392-0.0032-71.076267-0.004267-106.6144-0.005866z" fill="#8E8E8E"></path><path d="M352.058133 458.728c-0.0192 23.8928-0.044267 47.7872-0.055466 71.6784-0.005867 11.634667 0.014933 23.272 0.023466 34.907733-35.002133 0.0064-70.004267 0.011733-105.006933 0.013867-0.5312 0-1.0624-0.056533-1.5936-0.088533-0.030933-1.153067-0.088533-2.304-0.089067-3.456534-0.007467-34.364267-0.0096-68.725333-0.0112-103.088 0.002667-69.782933 0.005333-139.566933 0.009067-209.349333 0-1.3312 0.0112-2.662933 0.016533-3.9936 35.566933 0.008 71.134933 0.0144 106.701334 0.022933-0.0176 0.709333-0.0512 1.418133-0.0512 2.128-0.002133 69.6112-0.002133 139.219733 0 208.829334 0.0016 0.797333 0.037867 1.596267 0.057066 2.395733z" fill="#D9662C"></path><path d="M565.273067 245.320533l106.720533 0.040534c0.002667 70.500267 0.005333 141.002133 0.005333 211.501333 0 0.6208-0.0368 1.242133-0.056533 1.862933-4.792533-0.019733-9.588267-0.057067-14.3824-0.055466-30.722133 0.012267-61.443733 0.034667-92.165867 0.055466-0.019733-1.242667-0.056533-2.485333-0.056533-3.728533-0.006933-69.901333-0.0112-139.8048-0.013867-209.706133l-0.050666 0.029866z" fill="#7F3919"></path><path d="M565.392533 458.725333c30.722133-0.0192 61.443733-0.0416 92.165867-0.055466 4.794133-0.002133 9.5888 0.0352 14.3824 0.055466 0.019733 30.1936 0.036267 60.3888 0.0624 90.581867 0.004267 5.326933 0.045867 10.655467 0.0704 15.9824-0.037867 0.192-0.077333 0.386133-0.116267 0.578133-3.161067-0.178133-6.322133-0.506133-9.482666-0.5104-32.386133-0.0432-64.7712-0.0336-97.1568-0.0384l0.032 0.0304c-0.005867-12.7056-0.019733-25.4112-0.0128-38.1184 0.010667-22.836267 0.035733-45.669867 0.055466-68.5056z" fill="#0B0B0B"></path><path d="M352.058133 458.728c-0.0192-0.7984-0.055467-1.597333-0.056-2.395733-0.002133-69.6096-0.002133-139.218667 0-208.829334 0-0.709867 0.0336-1.4192 0.0512-2.128 31.9232-0.0128 63.846933-0.027733 95.7696-0.040533 3.635733-0.0016 7.271467-0.009067 10.9072-0.0112l-0.0512-0.032533c-0.0048 69.901333-0.009067 139.8048-0.014933 209.706133 0 1.2432-0.0368 2.485867-0.056533 3.728533-30.899733-0.0192-61.799467-0.0416-92.6992-0.055466-4.616533-0.0016-9.233067 0.0368-13.850134 0.058133z" fill="#7F3919"></path><path d="M458.607467 458.725333c0.019733-1.242667 0.056533-2.485333 0.056533-3.728533 0.006933-69.901333 0.0112-139.8048 0.014933-209.706133h106.6416c0.0048 69.901333 0.009067 139.8048 0.0144 209.706133 0 1.2432 0.0368 2.485867 0.056534 3.728533-0.019733 22.8352-0.0448 45.6704-0.057067 68.505067-0.006933 12.706133 0.008533 25.4112 0.0128 38.1184l-106.699733 0.0016c-0.011733-35.541333-0.026133-71.0832-0.04-106.625067z" fill="#D9662C"></path>
</svg>
