<svg xmlns="http://www.w3.org/2000/svg" viewBox="0 0 1024 1024" id="icon-toughness-diamond-half">
<path d="M994.63942098 450.9331761l-0.84491969 8.05527778h-106.69103513l-0.0449577-0.04495769V137.890598l0.0449577-0.04495769h106.69032195c0.32041324 2.0387954 0.58230921 3.70936719 0.84563287 5.37993762v8.02744683c-0.17840312 0.79425263-0.51308907 1.58779209-0.51380225 2.38133022-0.0228361 95.45161114-0.0228361 190.90393543 0 286.35483341 0.00071316 0.79425263 0.33539913 1.58779209 0.51380225 2.38133154v8.56265617z" fill="#013D38"></path><path d="M137.85848537 458.97560883c-35.67072052-0.00570937-71.34215419-0.00999105-107.01287471-0.01498591V137.87418578l107.05711925 0.02783096-0.05637509-0.05637643c0.00927654 29.8090933 0.0149859 59.61818658 0.03139815 89.42727987 0.00356852 5.87090375 0.05138023 11.74180885 0.07921117 17.61342713-0.02783096 14.08745792-0.07849801 28.17491718-0.07707035 42.26237508 0.00214084 21.57898091 0.04067602 43.15724731 0.0642253 64.73480056-0.0228361 0.62227205-0.06636613 1.24454276-0.06636612 1.8668148 0 35.06628971 0.0042817 70.13257808 0.00785019 105.1988678l-0.02711779 0.02640328z" fill="#00514A"></path><path d="M351.93133466 30.84561066l-0.02069526 107.04855587 0.04281685-0.04210369c-32.30745669 0.0071357-64.6142002 0.01213189-96.92165554 0.02569013-3.38039058 0.00142767-6.76078114 0.05423423-10.14045854 0.08349285-1.06613965-0.02925864-2.13156613-0.08349287-3.19770578-0.08349285-34.61599826-0.01427272-69.23199783-0.0228361-103.84728157-0.03211266l0.05637509 0.05637643-0.02854413-107.05640608h214.05714888z" fill="#00514A"></path><path d="M672.98994084 137.84564031c0.00999105-35.66643883 0.01855443-71.33359083 0.02783097-107.00002965H887.07563521l0.02854411 107.00002965-0.04495769 0.04495769h-214.02432308l-0.04495771-0.04495769z" fill="#013D38"></path><path d="M458.94064217 244.9234548c34.60244001-0.00642253 69.20559321-0.01284505 103.80803324-0.02140842 1.06970817-0.00071316 2.13941499-0.01998076 3.20983633-0.02997181l0.05780275 0.04353003c-0.00999105 1.33802666-0.02640328 2.67605331-0.02640328 4.01336684l-0.00071318 638.14452292 0.00499486 106.94222691c-0.80067516 0.02925864-1.60063715 0.0856337-2.4013123 0.08563368-105.32517752 0.00356852-210.65035502 0.00356852-315.97624571 0.00356852h-2.72886123v-107.0135892l0.02640461-0.02569011h214.04644466v-3.30902827c0-10.78699303 0.00570937-21.57327157-0.00142765-32.36026459-0.01569907-23.80188876-0.03853516-47.60306438-0.05851592-71.40495313 0.01998076-1.15819589 0.05708959-2.31639178 0.05708958-3.47530081 0.00285401-176.0521967 0.00285401-352.10510656 0.00356717-528.15730324 0-1.15962356 0.01427272-2.31924577 0.02140842-3.47815618l-0.04210235 0.04281686z" fill="#00514A"></path><path d="M244.88777365 887.09062111h-107.01358787v-3.52810873-421.37635271c0-1.07042133-0.00999105-2.14084267-0.01498591-3.21055084l0.02640329-0.02640328c8.11165287 0.00356852 16.22259257 0.00570937 24.33353092 0.01141737l82.62582271 0.05566193c0.01926759 1.15819589 0.05637508 2.31710496 0.05637642 3.47458764 0.00285401 104.67864303 0.00214084 209.35728607 0.00499486 314.0359291 0 1.15819589 0.04424454 2.31639178 0.06779379 3.47387447-0.02354926 0.62227205-0.06707929 1.24382958-0.06708063 1.86610031 0 35.06628971 0.00356852 70.13186491 0.00713703 105.19815463l-0.02640461 0.02569011z" fill="#00514A"></path><path d="M887.10417932 458.98845388c-0.00999105 1.06970817-0.02711779 2.13941499-0.02711646 3.20983633-0.00142767 140.45355166-0.00142767 280.907102-0.00142766 421.36065365v3.5445223h-106.99931648l-0.04567087-0.0449577c0.00642253-1.24811127 0.01641357-2.49693572 0.01641225-3.74576151v-420.3544576-4.01479316h107.01216153l0.04495769 0.04495769zM565.99419289 994.01500809l-0.00499486-106.94222689 214.04002215-0.01427274 0.04567087 0.0449577v106.86943825c-0.84277884 0.04923938-1.52356681 0.12559655-2.20506793 0.12559654-70.00412754 0.00570937-140.00682872 0.00570937-210.01095625 0.00214084-0.62084437 0-1.24240191-0.05637508-1.86467398-0.0856337z" fill="#013D38"></path><path d="M351.91135391 137.89416653h107.03000144v107.02928827l0.04210369-0.04210368H351.95488392V137.85277735l-0.04353001 0.04138918z" fill="#00514A"></path><path d="M565.95851174 244.8713614V137.84492716h107.03071595l0.04495769 0.04495769v107.02429341h-107.01787089l-0.05780275-0.04281686z" fill="#013D38"></path><path d="M566.01631449 244.91489144h107.01787089V137.890598h214.02432308v321.05289819h-107.01216154V883.31274695c0 1.24882445-0.01070421 2.49765022-0.01641356 3.74576151l-214.04002215 0.01427274 0.00071316-638.14452293c-0.00071316-1.33731349 0.01641357-2.67534015 0.02569012-4.01336683z" fill="#0C6862"></path><path d="M137.84564031 137.84564031c34.61599826 0.00927654 69.23199783 0.0178399 103.8472829 0.03211266 1.06613965 0 2.13156613 0.05423423 3.19699128 0.08349285l0.00356851 106.93009635-106.9379452-0.00499486c-0.02783096-5.87161826-0.07564265-11.74252202-0.07921118-17.61342713-0.01569907-29.80838013-0.02069525-59.6174734-0.03068631-89.42727987z" fill="#E5E6F1"></path><path d="M137.95696414 244.88634731l106.93794654 0.00499486 0.01070422 107.04213333-106.96149581-0.04923939c-0.02354926-21.57826639-0.06137127-43.15653416-0.0642253-64.73480054-0.00142767-14.08745792 0.04923938-28.17563034 0.07707035-42.26308826z" fill="#34CFCB"></path><path d="M137.94411909 351.88423611l106.96149581 0.04923939-0.00356852-0.0035685c0 11.83957311 0.0078502 23.67914757 0 35.51800751-0.0149859 23.85540985-0.03782199 47.71153285-0.05708959 71.56837034l-82.62582271-0.05566193c-8.11093971-0.00499487-16.22187805-0.0071357-24.33353092-0.01141737-0.00356852-35.0655752-0.0071357-70.13257808-0.00785019-105.1988678-0.00071316-0.62155754 0.04281686-1.24382958 0.06636612-1.86610164z" fill="#159C92"></path><path d="M244.90490039 351.9334755l-0.01070423-107.04213333-0.00356715-106.93009635c3.38039058-0.02925864 6.76078114-0.08206519 10.1411717-0.08349285 32.30745669-0.01355822 64.6142002-0.01855443 96.92165554-0.02569013v107.0285751h107.0285751c-0.0071357 1.15890905-0.02140843 2.3185326-0.02140843 3.47815618-0.00071316 176.0521967-0.00071316 352.10510656-0.0035685 528.15730324 0 1.15890905-0.03710749 2.31710496-0.05708825 3.47530081-13.98897914 0.01855443-27.97795963 0.05423423-41.96693878 0.05066706-21.65176956-0.0042817-43.30353779-0.03639431-64.95530737-0.05637506-0.0149859-1.24811127-0.0449577-2.49622254-0.04495768-3.74433382-0.00214084-140.11529851-0.00214084-280.22988254-0.00214085-420.34518106v-3.96698147H244.89990554l0.00499485 0.00428168z" fill="#79EFEC"></path><path d="M351.9784332 779.98569017c21.65176956 0.01998076 43.30353779 0.0520934 64.95530735 0.05637506 13.98897914 0.00356852 27.97795963-0.03211264 41.9669388-0.05066706 0.01998076 23.80188876 0.04281686 47.60306438 0.05851592 71.40495313 0.0071357 10.78627854 0.00142767 21.57255839 0.00142765 32.3602646v3.30902826H244.91417826c-0.00356852-35.06628971-0.0071357-70.13186491-0.00713703-105.1981533 0-0.62227205 0.04353003-1.24382958 0.06636612-1.86610164 13.82128026 0.0149859 27.64256052 0.04638537 41.46455527 0.04281687 21.84658624-0.0078502 43.69388565-0.03782199 65.54047057-0.05851592z" fill="#159C92"></path><path d="M351.9784332 779.98569017c-21.84658624 0.01998076-43.69388565 0.04995255-65.54047058 0.05708823-13.82199342 0.0042817-27.64327368-0.02711779-41.46455527-0.04281685-0.02354926-1.15748272-0.06707929-2.31567861-0.06707928-3.47387313-0.00285401-104.67864303-0.00214084-209.35728607-0.00499486-314.0359291 0-1.15819589-0.03639431-2.31639178-0.05637642-3.47458764 0.01926759-23.85612301 0.04210368-47.71224734 0.05708959-71.56837034 0.0071357-11.83957311 0-23.67843306 0-35.51800752h107.03000145v3.96698147c0 140.11529851 0 280.22988254 0.00214082 420.34518106-0.00071316 1.24811127 0.02854412 2.49622254 0.04424455 3.74433382z" fill="#34CFCB"></path>
</svg>
