<svg xmlns="http://www.w3.org/2000/svg" viewBox="0 0 1024 1024" id="icon-food-empty-saturation-level-50">
<path d="M779.161067 672.404267c1.0656 0.015467 2.130667 0.046933 3.1968 0.046933 69.046933 0.002133 138.093333-0.0032 207.140266 0.046933 1.149333 0.001067 2.299733 0.666133 3.4496 1.021867v3.7328c-0.1776 0.801067-0.510933 1.6016-0.511466 2.402667-0.024533 63.811733-0.024533 127.625067 0 191.437333 0.000533 0.801067 0.333867 1.6016 0.511466 2.402133v6.399467l-0.843733 5.8704H885.866667l-0.179734-0.0672c0.024-0.354133 0.0688-0.707733 0.0688-1.061867 0.004267-34.455467 0.005333-68.911467-0.003733-103.366933 0-0.674667-0.127467-1.348267-0.211733-2.1888h-106.440534l0.0352 0.035733c-0.009067-14.3024-0.015467-28.605333-0.027733-42.907733-0.018133-21.231467-0.04-42.4624-0.060267-63.693867l0.114134-0.109866z" fill="#C1A000"></path><path d="M32.533333 245.839467c35.5424-0.009067 71.0848-0.016533 106.6272-0.026134l0.044267 0.044267v213.269867l-0.044267 0.044266L32.533333 459.146667V245.839467zM245.813867 139.16c0.009067-35.541867 0.016533-71.084267 0.026133-106.626667h106.653333l0.0432 106.64c-35.559467 0.010133-71.118933 0.020267-106.677866 0.031467l-0.0448-0.0448z" fill="#0B0B0B"></path><path d="M352.536 139.173333L352.4928 32.533333H459.146667c0 34.4576-0.000533 68.916267 0.0032 103.3744 0 1.064 0.048533 2.128533 0.074666 3.193067l-0.1392 0.146667c-1.064533-0.020267-2.129067-0.058667-3.1936-0.058667-34.451733-0.007467-68.902933-0.0112-103.355733-0.015467z" fill="#E8D162"></path><path d="M885.8656 885.7648c-0.0352 1.063467-0.1008 2.1264-0.1008 3.189333-0.005867 33.318933-0.0048 66.636267-0.0048 99.954134v3.333866h-213.306667v-3.045866c0-68.946133 0-137.892267-0.002133-206.8384 0-1.0656-0.0336-2.130667-0.0512-3.196267l0.1312-0.132267c1.153067 0.0256 2.3072 0.074133 3.4608 0.074667 34.380267 0.006933 68.761067 0.0096 103.141867 0.0112l-0.035734-0.0352v106.679467h3.239467c13.763733 0 27.5248 0.008533 41.287467-0.0016 20.686933-0.013333 41.373867-0.04 62.0608-0.0608l0.179733 0.067733z" fill="#9E8509"></path><path d="M672.4 779.162133c-1.0656-0.018133-2.1312-0.053867-3.1968-0.053866-68.9568-0.002133-137.914133-0.0016-206.871467-0.005867-1.064533 0-2.129067-0.053867-3.1936-0.082667 0.012267-35.5168 0.0256-71.033067 0.0384-106.5488l213.303467-0.009066-0.0352-0.0352c0.002133 26.917867 0 53.8352 0.012267 80.7536 0.0032 8.616 0.048 17.233067 0.074133 25.849066l-0.1312 0.1328z" fill="#9E8509"></path><path d="M245.813333 565.826133H139.159467V459.172267l0.044266-0.044267h106.653867v106.653867l-0.044267 0.044266z" fill="#0B0B0B"></path><path d="M352.466667 672.478933H245.813333v-106.653333l0.044267-0.044267h106.653333v106.653867l-0.044266 0.043733z" fill="#0B0B0B"></path><path d="M459.176533 672.470933l-0.0384 106.5488c-6.6624 0.029867-13.324267 0.08-19.987733 0.082134-27.8144 0.010133-55.6288 0.004267-83.4432 0.004266h-3.241067v-106.627733l0.044267-0.043733 106.666133 0.036266z" fill="#0B0B0B"></path><path d="M672.508267 352.445333c34.381333 0.014933 68.762667 0.032 103.144 0.048h3.455466v3.546134c0 104.389333 0 208.778133 0.002134 313.167466 0 1.0656 0.0336 2.1312 0.052266 3.1968l-0.1152 0.109867c-1.154133-0.020267-2.308267-0.0576-3.461866-0.0576-34.379733-0.011733-68.76-0.0208-103.1392-0.029867l0.0352 0.035734c-0.009067-1.1552-0.026133-2.3104-0.026134-3.4656-0.001067-104.325867-0.001067-208.6528-0.0032-312.9792 0-1.154133-0.0384-2.308267-0.0592-3.462934l0.115734-0.1088z" fill="#C1A000"></path><path d="M459.224 139.101333c5.062933 0.029333 10.125867 0.08 15.189333 0.0816 29.3216 0.008 58.642667 0.003733 87.964267 0.003734h3.441067v106.558933l0.013333 0.240533c-1.061333-0.048533-2.122133-0.1392-3.183467-0.1392-33.403733-0.008533-66.807467-0.006933-100.210666-0.006933h-3.292267v-2.918933c0-10.038933 0.005867-20.077867-0.0016-30.1168-0.016533-24.519467-0.039467-49.037333-0.059733-73.556267l0.139733-0.146667z" fill="#E8D162"></path><path d="M565.818667 245.745067c1.063467 0.032 2.126933 0.0912 3.1904 0.0912 33.309333 0.003733 66.619733 0.0016 99.930133 0.000533l3.568-0.000533v106.609066l-0.1168 0.109334h-106.558933V245.986133l-0.0128-0.241066z" fill="#C0A000"></path><path d="M672.4448 672.426667c34.3792 0.009067 68.759467 0.017067 103.1392 0.029866 1.1536 0 2.307733 0.037333 3.461867 0.0576 0.020267 21.231467 0.042133 42.461867 0.060266 63.693867 0.0112 14.3024 0.018667 28.605333 0.027734 42.907733-34.3808-0.002667-68.7616-0.005333-103.141867-0.011733-1.1536-0.000533-2.307733-0.049067-3.4608-0.074667-0.026133-8.616-0.070933-17.232533-0.074133-25.848533-0.012267-26.918933-0.010133-53.836267-0.012267-80.754133z" fill="#282828"></path><path d="M885.685867 885.6976c-20.686933 0.0208-41.373867 0.046933-62.0608 0.0608-13.762667 0.0096-27.523733 0.0016-41.287467 0.0016h-3.239467v-106.68h106.440534c0.0848 0.84 0.212267 1.514667 0.212266 2.1888 0.009067 34.455467 0.008 68.911467 0.003734 103.366933 0 0.3536-0.0448 0.707733-0.0688 1.061867z" fill="#282828"></path><path d="M139.160533 245.813867V139.16h106.6544l0.043734 0.044267v106.653866H139.2048l-0.044267-0.044266z" fill="#0B0B0B"></path><path d="M139.2048 245.858133h106.653867V139.204267c35.56-0.0112 71.118933-0.021333 106.677866-0.031467 34.452267 0.0048 68.903467 0.008 103.3552 0.015467 1.064533 0 2.129067 0.0384 3.1936 0.058666 0.0208 24.518933 0.0432 49.037333 0.060267 73.556267 0.006933 10.0384 0.001067 20.077867 0.001067 30.1168v2.918933h3.292266c33.4032 0 66.806933-0.0016 100.210667 0.006934 1.0608 0 2.122133 0.090667 3.183467 0.1392v106.568533h106.558933c0.0208 1.154667 0.0592 2.3088 0.0592 3.463467 0.002133 104.3264 0.002133 208.653333 0.0032 312.978666 0 1.1552 0.0176 2.3104 0.026133 3.4656-71.100267 0.0032-142.202133 0.005333-213.302933 0.009067-35.5552-0.0112-71.1104-0.024533-106.6656-0.0352V565.781333H245.858133V459.127467H139.2048v-213.269334z" fill="#282828"></path>
</svg>
